<?xml version="1.0" encoding="UTF-8" standalone="no"?>
<svg
   xmlns:dc="http://purl.org/dc/elements/1.1/"
   xmlns:cc="http://creativecommons.org/ns#"
   xmlns:rdf="http://www.w3.org/1999/02/22-rdf-syntax-ns#"
   xmlns:svg="http://www.w3.org/2000/svg"
   xmlns="http://www.w3.org/2000/svg"
   xmlns:sodipodi="http://sodipodi.sourceforge.net/DTD/sodipodi-0.dtd"
   xmlns:inkscape="http://www.inkscape.org/namespaces/inkscape"
   sodipodi:docname="VectorLogo.svg"
   inkscape:version="1.0 (4035a4fb49, 2020-05-01)"
   id="svg8"
   version="1.1"
   viewBox="0 0 49.965725 51.727577"
   height="51.727577mm"
   width="49.965725mm">
  <defs
     id="defs2" />
  <sodipodi:namedview
     inkscape:window-maximized="1"
     inkscape:window-y="-8"
     inkscape:window-x="-8"
     inkscape:window-height="1057"
     inkscape:window-width="1920"
     showgrid="false"
     inkscape:document-rotation="0"
     inkscape:current-layer="g961"
     inkscape:document-units="mm"
     inkscape:cy="97.032952"
     inkscape:cx="76.976597"
     inkscape:zoom="3.3665079"
     inkscape:pageshadow="2"
     inkscape:pageopacity="0.0"
     borderopacity="1.0"
     bordercolor="#666666"
     pagecolor="#ffffff"
     id="base" />
  <metadata
     id="metadata5">
    <rdf:RDF>
      <cc:Work
         rdf:about="">
        <dc:format>image/svg+xml</dc:format>
        <dc:type
           rdf:resource="http://purl.org/dc/dcmitype/StillImage" />
        <dc:title></dc:title>
      </cc:Work>
    </rdf:RDF>
  </metadata>
  <g
     transform="translate(-119.83375,-60.168338)"
     id="layer1"
     inkscape:groupmode="layer"
     inkscape:label="Layer 1">
    <g
       transform="translate(37.487575,12.253555)"
       id="g916" />
    <g
       id="g938"
       transform="translate(-116.72946,5.284409)"
       style="opacity:1">
      <g
         id="g961"
         transform="translate(6.2874252,0.86452096)">
        <path
           id="path857"
           d="m 259.82224,102.18797 c -1.04191,-0.53596 -2.26843,-1.39917 -2.72561,-1.91823 0,0 -0.69934,-0.780463 -0.44523,-1.072423 0.43942,-0.50488 2.25058,0.24158 3.34152,0.871433 1.09094,0.62985 3.25684,1.71794 3.25684,2.79419 0,0.5907 -1.56688,0.28213 -3.42752,-0.67499 z m -14.96102,-6.532983 c -0.67505,-0.31796 -1.68666,-0.95142 -2.48179,-1.58577 -0.7756,-0.61878 -1.3433,-1.23979 -1.3433,-1.46142 0,-0.497744 1.05368,-0.378854 2.28745,0.18273 0.9753,0.44393 2.061,1.1965 2.84257,1.91692 1.77861,1.63946 1.14336,2.10073 -1.30493,0.94754 z m 11.68531,-1.34198 c -2.53578,-1.04264 -5.13582,-3.158116 -4.85478,-3.950022 0.18256,-0.514405 2.18077,-0.233211 3.6582,0.51479 2.73546,1.384929 4.52315,3.280192 3.62864,3.846982 -0.51671,0.3274 -0.71676,0.29353 -2.43206,-0.41175 z"
           style="opacity:1;fill:#f2b00a;stroke-width:0.264583"
           sodipodi:nodetypes="ssszssssssssssssssaa" />
        <path
           sodipodi:nodetypes="cssscssssscccsscssccscsssssssccsss"
           id="path853"
           d="m 266.50561,100.72941 c -0.6188,-0.299 -1.42525,-1.765833 -2.73535,-4.975303 -0.44551,-1.09141 -1.06214,-2.54833 -1.37029,-3.23761 -0.55322,-1.237463 -0.554,-1.264864 -0.0622,-2.178097 0.27394,-0.508677 0.57584,-0.837692 0.67089,-0.731144 0.0951,0.10655 0.6094,1.324819 1.14302,2.707267 1.27181,3.294884 2.29871,5.332784 2.85442,5.664644 0.93926,0.56089 1.87145,-0.1196 2.85824,-2.0865 0.90856,-1.81098 0.92575,-1.90584 0.91094,-5.027082 -0.0141,-2.974528 -0.0924,-3.442697 -1.20466,-7.204011 l -1.18957,-4.022742 0.56734,-0.940038 0.56733,-0.940038 0.5497,2.052362 c 0.30234,1.128801 1.17328,4.374082 1.93542,7.211738 l 1.38571,5.159375 -1.41666,2.778126 c -1.89156,3.70941 -3.01641,5.404113 -3.83426,5.776763 -0.79362,0.36159 -0.86646,0.36125 -1.63003,-0.008 z m 6.02033,-15.227908 c -2.29198,-8.94943 -2.29104,-8.944223 -1.78804,-9.933923 1.67957,-3.304651 3.87714,-6.781043 4.57607,-7.238997 0.58176,-0.381184 0.69388,-0.378524 1.31935,0.0313 1.01677,0.666213 1.33309,1.695892 2.20046,7.162914 0.68369,4.309246 0.74004,5.042683 0.42227,5.496358 -0.42839,0.611616 -0.26855,1.15951 -1.28515,-4.405336 -0.86874,-4.75551 -1.60713,-5.931123 -2.93926,-4.679652 -0.34464,0.323769 -0.90146,1.202036 -1.23738,1.951702 -0.54826,1.22351 -0.86044,1.619264 -0.85584,5.063021 0.005,3.439067 0.34239,4.311553 1.09647,7.242084 0.77866,3.026278 0.81173,3.326048 0.44518,4.034896 -0.21779,0.421156 -0.43021,0.765738 -0.47204,0.765738 -0.0418,0 -0.70877,-2.470547 -1.48209,-5.490105 z"
           style="opacity:1;fill:#049644;stroke-width:0.264583" />
        <path
           id="path851"
           d="m 253.02274,86.06134 c -1.95107,-0.638024 -5.68433,-2.187466 -6.01641,-2.497034 -0.10757,-0.100275 0.20001,-0.782998 0.68351,-1.517158 0.4835,-0.734161 2.21871,-3.46793 3.85603,-6.075044 1.6373,-2.607114 4.1506,-6.585676 5.5851,-8.841249 1.4345,-2.255573 3.10901,-4.93448 3.72113,-5.953125 0.61212,-1.018646 1.12647,-1.873399 1.14299,-1.899452 0.0165,-0.02605 1.43187,0.348152 3.14523,0.831564 3.58671,1.011964 5.89769,2.090024 6.61843,3.087468 0.44378,0.614143 0.46901,0.857013 0.21308,2.05037 -0.15967,0.744539 -0.80848,2.216978 -1.44179,3.272087 -0.63331,1.055109 -2.08258,3.525723 -3.22059,5.490255 -1.13801,1.964531 -2.58565,4.439301 -3.21697,5.499488 -0.63132,1.060189 -1.14786,1.989456 -1.14786,2.065039 0,0.303922 -2.11007,3.197167 -2.81649,3.861869 -0.41546,0.390925 -1.09056,0.837409 -1.50022,0.992188 -1.18426,0.447447 -3.59729,0.28934 -5.60517,-0.367266 z m 3.56365,-3.089111 c 0.41563,-0.455057 3.09584,-4.740176 5.95603,-9.522485 5.84854,-9.778931 5.868,-9.832544 3.84178,-10.586195 -1.07857,-0.401177 -1.2342,-0.404107 -1.65365,-0.03114 -0.25466,0.226442 -0.46302,0.517142 -0.46302,0.646002 0,0.128859 -0.22333,0.55689 -0.49628,0.95118 -0.27296,0.39429 -1.48066,2.324234 -2.68378,4.288766 -1.20311,1.964531 -2.41439,3.929062 -2.69173,4.365625 -0.27733,0.436562 -1.74294,2.817812 -3.25692,5.291667 l -2.75268,4.497916 0.97976,0.456084 c 1.49094,0.694039 2.3469,0.599043 3.22049,-0.357418 z m -16.79282,-1.923978 c -2.23912,-0.708145 -3.53771,-1.712598 -4.08647,-3.160882 -0.46099,-1.216656 0.12829,-2.555532 2.88068,-6.545004 1.39079,-2.015891 3.71934,-5.425273 5.17454,-7.576404 1.45521,-2.151132 3.30068,-4.584 4.10105,-5.406375 1.34552,-1.382524 1.57093,-1.509597 2.99053,-1.685878 2.91588,-0.362083 5.45736,0.343558 6.92048,1.921469 0.72127,0.777856 0.84499,1.697068 0.38962,2.894791 -0.15549,0.408958 -1.64952,2.887256 -3.32008,5.507328 -8.49642,13.325605 -8.75764,13.661731 -10.98933,14.140344 -1.65954,0.355907 -2.72732,0.332401 -4.06102,-0.08939 z m 3.14011,-3.173473 c 0.27186,-0.306606 0.79729,-1.033715 1.16763,-1.615798 1.17051,-1.839721 6.14666,-9.418207 7.99293,-12.17292 2.40428,-3.587281 2.76142,-4.305303 2.37375,-4.772419 -0.49282,-0.593811 -2.01833,-0.76822 -2.71674,-0.310602 -0.50721,0.332333 -11.08491,15.757875 -12.0465,17.567503 -0.41546,0.781847 -0.1265,1.396884 0.85603,1.821996 0.9604,0.415544 1.68571,0.257284 2.3729,-0.51776 z"
           style="opacity:1;fill:#1f2c7e;fill-opacity:1;stroke-width:0.264583"
           sodipodi:nodetypes="sssssssssssssssssssssssssscssssssssssssssssssssss" />
        <path
           id="path849"
           d="m 264.30809,105.25443 c -0.65484,-0.30541 -3.86953,-1.74367 -7.14375,-3.19611 -12.2931,-5.453263 -15.49525,-6.939633 -16.10208,-7.474273 -0.34318,-0.30235 -1.17489,-1.32364 -1.84825,-2.269524 -0.67335,-0.945885 -2.87688,-3.981979 -4.89673,-6.746875 -2.01984,-2.764896 -3.7731,-5.290519 -3.89613,-5.612495 -0.46603,-1.219683 -0.2668,-1.548666 7.73706,-12.776047 2.43789,-3.41974 5.00292,-7.022945 5.70006,-8.007123 4.18262,-5.904742 3.8927,-5.764927 8.94045,-4.31164 3.27143,0.941872 6.48328,1.828281 14.94896,4.125631 8.96212,2.43207 9.15844,2.49986 9.71955,3.356228 0.40973,0.62533 2.24002,12.378819 2.60729,16.743154 l 0.10618,1.26172 0.0269,0.319913 0.0339,0.402742 -1.78151,3.439583 c -0.97983,1.891771 -2.40472,4.630209 -3.16643,6.085417 -0.7617,1.455209 -2.49319,4.781546 -3.84774,7.391866 -4.03696,7.779503 -3.97178,7.679013 -5.03056,7.756263 -0.50912,0.0371 -1.44581,-0.17997 -2.10718,-0.48843 z m 1.85209,-0.12258 c 0,-0.16657 -3.87462,-9.166833 -5.03103,-11.686463 -0.51903,-1.130875 -1.03089,-1.814815 -1.63282,-2.181726 -0.48223,-0.293949 -5.04397,-2.196983 -10.1372,-4.228965 -5.09322,-2.031979 -11.16541,-4.472839 -13.49374,-5.42413 -2.32834,-0.951291 -4.32264,-1.730034 -4.43178,-1.730539 -0.56845,-0.0026 -0.13666,0.711422 3.11928,5.158454 0.9589,1.309688 2.0272,2.797969 2.37401,3.307292 0.3468,0.509323 1.50101,2.113309 2.56491,3.564416 l 1.85346,2.420146 c 0,0 0.0435,0.05794 0.0781,0.08575 0.0262,0.02106 0.0941,0.06266 0.0941,0.06266 l 6.65962,3.119984 c 3.68953,1.728521 7.45827,3.347831 8.32288,3.711631 0.86461,0.3638 3.1835,1.39689 5.15311,2.29575 3.28678,1.49999 4.50713,1.91309 4.50713,1.52574 z m 2.78828,-3.31245 c 3.37267,-6.335003 6.81768,-12.968122 8.85282,-17.045502 l 2.11298,-4.233334 -1.21763,-8.334375 c -0.6697,-4.583906 -1.32359,-8.447484 -1.45309,-8.585729 -0.35193,-0.375712 -0.5013,-0.159932 -3.28743,4.749271 -2.89705,5.104635 -3.34196,5.885701 -4.82274,8.466667 -6.45322,11.247842 -7.55664,13.305385 -7.66211,14.2875 -0.0925,0.861491 0.20151,1.796489 1.58083,5.027079 0.93197,2.18282 2.15723,5.071473 2.7228,6.419223 0.56557,1.34776 1.14892,2.41027 1.29635,2.36113 0.14742,-0.0491 0.99217,-1.44951 1.87722,-3.11193 z m -8.01884,-12.349148 c 0.54884,-0.579369 5.57798,-9.200616 12.84092,-22.012664 0.36688,-0.6472 1.00564,-1.750952 1.41945,-2.452783 0.41382,-0.701832 0.82124,-1.550358 0.90538,-1.885615 0.27504,-1.095842 0.8448,-0.888026 -12.44873,-4.540569 -2.32834,-0.639735 -6.41237,-1.764304 -9.07565,-2.499043 -2.66326,-0.734739 -5.2449,-1.335889 -5.73697,-1.335889 -1.07683,0 -1.47071,0.447317 -5.47491,6.217708 -3.5847,5.165864 -4.87574,7.00369 -7.62048,10.847917 -3.80573,5.330245 -4.29004,6.112148 -4.19521,6.77298 0.0487,0.339719 0.38629,0.7696 0.75009,0.955293 2.05318,1.047986 26.45936,10.612105 27.13644,10.634028 0.56282,0.01823 1.02096,-0.196038 1.49967,-0.701363 z"
           style="opacity:1;fill:#090909;stroke-width:0.264583"
           sodipodi:nodetypes="scsssssssssscccssscsssssssssscscsssssscsssssssssssssssssscssss" />
        <path
           sodipodi:nodetypes="ssssss"
           id="path909"
           d="m 238.87006,87.088417 c -2.53578,-1.042641 -4.57858,-3.06714 -4.29754,-3.859045 0.0802,-0.226088 0.26167,-0.470493 0.68002,-0.444209 0.53349,0.03352 1.38816,0.41466 2.21624,0.833904 2.73546,1.384924 4.72785,3.314309 3.83334,3.881099 -0.51671,0.327401 -0.71676,0.29353 -2.43206,-0.411749 z"
           style="opacity:1;fill:#f2b00a;stroke-width:0.264583" />
      </g>
    </g>
  </g>
</svg>
